/* XPM */
static char *fdba04643cda4cb5810d7cdb03ca8e0bbirGj6SRO3t1hMS6[] = {
/* columns rows colors chars-per-pixel */
"64 64 200 2 ",
"   c #3C9A77",
".  c #359579",
"X  c #3D977E",
"o  c #349A7D",
"O  c #3C9C7D",
"+  c #2EA27B",
"@  c #3DA27D",
"#  c #43957C",
"$  c #4D967C",
"%  c #439C7E",
"&  c #4A997D",
"*  c #529C7D",
"=  c #4CA07E",
"-  c #5BA17C",
";  c #3F9685",
":  c #3D9C82",
">  c #399C86",
",  c #449584",
"<  c #4C9684",
"1  c #449C83",
"2  c #4C9C85",
"3  c #459C89",
"4  c #4D9D8A",
"5  c #549686",
"6  c #5A9685",
"7  c #529C86",
"8  c #5A9A84",
"9  c #56978F",
"0  c #5B958B",
"q  c #539E8A",
"w  c #5A9C8B",
"e  c #4B9B90",
"r  c #559791",
"t  c #559D90",
"y  c #5D9C91",
"u  c #639D8C",
"i  c #689B87",
"p  c #6B9D91",
"a  c #769E95",
"s  c #45A384",
"d  c #4CA285",
"f  c #4DA18B",
"g  c #43A388",
"h  c #53A185",
"j  c #5DA187",
"k  c #53A18C",
"l  c #5BA38C",
"z  c #54A291",
"x  c #59A292",
"c  c #55A896",
"v  c #63A48B",
"b  c #6BA48D",
"n  c #66A88D",
"m  c #6BAC8C",
"M  c #7AA78E",
"N  c #7DAA8E",
"B  c #73A48E",
"V  c #63A391",
"C  c #6BA592",
"Z  c #6CAB90",
"A  c #74A394",
"S  c #7AA692",
"D  c #74AA92",
"F  c #7DA995",
"G  c #7DA59B",
"H  c #75AB9A",
"J  c #72A39D",
"K  c #78ACA0",
"L  c #7BA3A5",
"P  c #81A294",
"I  c #80AA92",
"U  c #88AF94",
"Y  c #80A999",
"T  c #8DAD9B",
"R  c #9BA69E",
"E  c #93AD9C",
"W  c #9BAA9D",
"Q  c #87B19C",
"!  c #8EB09F",
"~  c #90B39F",
"^  c #A4AE9E",
"/  c #A4B19E",
"(  c #ADB59E",
")  c #B2B69F",
"_  c #8CAEA2",
"`  c #95ADA1",
"'  c #9CAFA2",
"]  c #95A5A4",
"[  c #8BB1A2",
"{  c #94B3A4",
"}  c #9DB2A4",
"|  c #A3ADA3",
" . c #ADADA7",
".. c #B7AEA9",
"X. c #B5ABA2",
"o. c #A5B3A4",
"O. c #AEB4A3",
"+. c #A5BDA3",
"@. c #ACB9A2",
"#. c #A6B3A9",
"$. c #ACB3AB",
"%. c #ADBBAB",
"&. c #A6BBAA",
"*. c #B4B4A4",
"=. c #BBB4A6",
"-. c #B5B9A4",
";. c #B9BBA6",
":. c #B4B4AB",
">. c #BBB5AA",
",. c #B2BCAB",
"<. c #BBBAAC",
"1. c #ADB6B1",
"2. c #AEBAB0",
"3. c #B5B7B4",
"4. c #BEB5B3",
"5. c #B2BFB1",
"6. c #BEBAB3",
"7. c #C3B3A6",
"8. c #C0BAA7",
"9. c #C4B5AB",
"0. c #C9B7AC",
"q. c #C4BBAD",
"w. c #CCBBAC",
"e. c #D1B5AC",
"r. c #D2BDAD",
"t. c #DAB8AE",
"y. c #C4B5B0",
"u. c #C8B0B0",
"i. c #C5BBB1",
"p. c #CCBCB3",
"a. c #C6BFB9",
"s. c #D4BCB3",
"d. c #DCBCB4",
"f. c #D4BBBA",
"g. c #DCBBBD",
"h. c #D3B5B8",
"j. c #E1B9AF",
"k. c #E4B7B2",
"l. c #E2BDB5",
"z. c #EBBBB5",
"x. c #ECB4BF",
"c. c #E4BDBB",
"v. c #ECBDBE",
"b. c #F3BFB1",
"n. c #FCBDB5",
"m. c #F3BDBC",
"M. c #FBBEBD",
"N. c #F8B5BC",
"B. c #C0C2AD",
"V. c #D1C6AA",
"C. c #CBC1B4",
"Z. c #D4C1B4",
"A. c #DBC2B3",
"S. c #D3C2BB",
"D. c #DDC2BB",
"F. c #DFC8BA",
"G. c #E6C3AF",
"H. c #EEC9AE",
"J. c #E1C3B4",
"K. c #ECC4B6",
"L. c #ECCCB7",
"P. c #E4C3BB",
"I. c #ECC3BC",
"U. c #E4CDBE",
"Y. c #EDCABC",
"T. c #F3C4B6",
"R. c #F9C2B6",
"E. c #F6C9B6",
"W. c #FCCBB6",
"Q. c #F5C3BF",
"!. c #F6C5BE",
"~. c #F5C5BD",
"^. c #FBC4BD",
"/. c #F5C8BB",
"(. c #F3CABC",
"). c #FBC9BD",
"_. c #DDBDC0",
"`. c #ECBFC4",
"'. c #F5BEC4",
"]. c #FDBEC2",
"[. c #F0BCC8",
"{. c #FDBFCA",
"}. c #EDC4C3",
"|. c #EECAC1",
" X c #ECC8C8",
".X c #F4C4C2",
"XX c #FEC5C2",
"oX c #FFC3C5",
"OX c #FFC1C5",
"+X c #FEC6C6",
"@X c #FCC4C2",
"#X c #F4C9C2",
"$X c #FBC9C3",
"%X c #F5C5C9",
"&X c #FEC5CA",
"*X c #F6CACA",
"=X c #FCCBC9",
"-X c #FFD2C4",
";X c #F8D1C6",
":X c #F5C7D4",
/* pixels */
"q q q q q q q q h q q q q q q q q q q q q q q q q q q q q q q q q q q q q q q q q q q q q q q q q q q q q q q q q q q q q q q q ",
"q q q q q q q q q q q q q q q q q q q q k q q q q k q q q q q q q q q q q q q q q q q q q q q q q q h q q q q q q q q h q q q q ",
"q q q q q q q q q q q q q q q q q q q q 7 q q q q q q q q q q q q k q q q q q q q q q q q q q q q q q q q q q q q q q q q q q q ",
"q q q q q q q q q q q q q q q q q q q q q q q q q q q q q q q q q q q q q q q q q q q q q q q q q q q q q q q q q q q q q q q q ",
"q q q q q q q q q q q q q q q q q q q q q q q q q q q q q q q q q q q q q q q q q q q q q q q q q q q q q q q q q q q q q q q q ",
"q q k q q q q q q q q q q k q q q q q q q q q q q q q q q q q q q q q q q q q q q q q q q q q q q q q q q q q q q q q q q q q q ",
"q q q q q q q q q q q q q q q q q q q k q q q q q q q q h q q q q q q q q q q h q q q q q q q q q q q q q q q q q q q q k q q q ",
"q q q q q q q q q q q q q q q q q q q q q q q q q q q q q q q q q q q q q q q q q q q q q q q q q q q q q q q h q q q q q q q q ",
"q q q h q q q q q q q q q q q q k q w q k q q q 4 k f q q q l q l q 7 4 k q q w w q 4 4 k k 4 q q q q q q q q q q q q q q q q q ",
"q q q 4 q q q q q q q q q q q q q f q q 7 4 k x w w q 7 7 4 4 3 5 q l w w w q 1 w d k l q 4 q u q q q q q q q q q q q q h q 4 q ",
"q q q q q q q q h q q q q q q q 8 4 f q 9 y w 1 1 2 2 7 l C C b v k 1 O 2 2 q z q f 4 8 0 w f f q q q q q q q q q q q q q q q q ",
"q q q q q q q q q q q q q q q q q 4 q z k 4 2 f I } a.`.v.m.m.(.`.c.h.$.Y j < 7 l w 4 4 q q 4 k q h q q q q q q q q q q q q q q ",
"q q q q q q q q q q q q q q q q q q y q 2 v / g.}.g.w.q.;.;.;.) *.B.Z.c.'._.} v # k k 4 q k k 8 q q q q q q k q q q q q q q q q ",
"q q q q k q q q q q q q q q h q z q 1 h W '.@Xw.*.i.S.d.l.v.Y.}.z.l.w.;.-.i.P.%X$.* & V 4 2 9 q q q q q q q q q q q q q q q q q ",
"q q q q q q q q q q q q q q q q k % F c.+X;./ C.Q..X+XoXXXXX@X^.$X@X@XXXY.s.=.( }.}.Q . q x g u q q q q q q q q q q q q q q q q ",
"q q q q q q q q q q q q q q q q & $. Xr.-.s.@XoX!./.T./.I./.~././.(..XQ.@X+XQ.l./ d.'.1.d < u 1 q q q q q q q q q q q q q q q h ",
"q q q q q q q q t q d 8 w q q & =.%Xq.*.#XXXn.$X!.!.!.!.!.!.!.!.!.!.!.!.!.!.!.!.R.<.<.oX7.% k q 4 w q g q 8 q 4 q q q q k q q q ",
"q q q q q q q q q 5 q q f t d 4.@X+.p.+X.X#X@XT.!.!.!.!.!.!.!.!.!.!.!.!.!.!.!.!.}.XXt.@. X6.1 w j 1 x q 2 7 q q q q q q q q q q ",
"k q q q q q q q q q w q g 2 } }.*.t.].Q.Q.~.Y.@X!.!.!.!.!.!.!.!.!.!.!.!.!.!.!.!.+X(.^.s.&.+Xo.< w 4 t w q k q 4 q q q q q q q q ",
"q q q q q q q q 4 q q q 3 P [.q.B.@X].@X~.Y./.~.!.!.!.!.!.!.!.!.!.!.!.!.!.!.!.!.Q.^./.$Xe.*.+XF 1 V 3 t q f w q q q q q q q q q ",
"q q q q q q q q q 4 z q 8 `.s.;.$X.XY.@XXXT.@XI.!.!.!.!.!.!.!.!.!.!.!.!.!.!.!.!./.^.I.(.@X=.C.P.j q 4 c 9 4 q q q q q q q q q q ",
"q q q q q q h q q u 4 O #.@X@.I.M.(..XK./.^.T.$X!.!.!.!.!.!.!.!.!.!.!.!.!.!.!.!.^.I.#X).K.OX&.I.%.  k w f q 4 w q q q q q q q q ",
"q q q q q q q q q w 2 l `.q.w.+X$XK.^.@X(.#XQ.^.!.!.!.!.!.!.!.!.!.!.!.!.!.!.!.~.T.=X(.I.).Q.K.=.}.j q 0 f q q q q q k q q q q q ",
"q q q q q q q q q f 4 { Q.*.@X.XI.XX(.I.M.M.+XY.!.!.!.!.!.!.!..X!.!.!.!.!.!.!.~..X~.R.+X%X!.Q.:.v.$.% q q f 0 f q q q q q q q q ",
"q q q q q q q q q d 7 k.C.w.*X^.{.E./.&X$X^.(..X+XXX^.(.*X+XR.&X^.R.$X+XXX^.+X#X/.$X:X~.^.#X$Xr.>.K.7 2 y w & t q q q q q q h q ",
"q q q q q q q q 9 d b I.9.J.#X^.+XV.T Y m } #XXXW U ~.P.D 9.M.m ,.=X%.N .X0.D ^ +Xw.P J.+X~.XXI.9.P.F 2 t q d w q q q q q q q q ",
"q q q h q q q q q 2 } |.=.#XQ.~.@Xr.: p b # W -Xn h @Xc.O O.m.+ T =XE # Y.o.o u .X-.X V.@X(.@XXXi.D.#.3 t q d q q q q q q q q q ",
"q q q q q q q q t # C.s.0.@X.X/.$Xv.> 3.:Xx u $XH u ].g.1 :.v.2 R =X| $ }.$.4 4 D.9.3 r..XY.Q.!.i.s.f.1 9 4 q w q q q q q q q q ",
"q q q q q q q q q 7 g.9.Z.M.(.I.^.s.O -.=XG i @XF q +Xd.O 2.Y.< E ;X| & I. .e q 5.u.3 d.#X#X~.@XZ.q.v.q z q k q q q q q q q q q ",
"q q q q q q q k q l v.>.A.oX/.~.XXA.1 ) XXA l =XD q XXA.: :.P.3 ` ;X` , P.*.q B T i., l.^.Q.^.XXP.=.I.w f 7 4 q q q k q q q q q ",
"q q q q q q q q q l I.<.J.+X~..X#Xl.< W P.x n Y.D u ].w.1 ..A.f ' (._ 5 J.:.t / b 5.1 d.].~.!.^.I.*.Y.p 3 h 4 q q q q q q q q q ",
"q q q q q q q q q 7 .X>.G.$XT.@X$XP.3 w k 1 y.$XP c @Xr.> :.I.3 T =X_ , Y.:.1 w.v | q w.=X(.I.@XI.:.|.a 2 h q q q q q q q q q q ",
"q q q q q q q q 4 u }.9.F.T.+X~..XA.3 D q ] W.%XM j .Xg.4 X.K.1 T -X` 2 v.:.> D.H A 8 p.@X(./.M.P.y.Y.l w f 9 h q q q q q q q q ",
"q q k q q k q q q l g.9.d./..X~.@Xs.4 } Y C ~.+XK 8 Q.Z.> #.U., { $X` 1 P.<.4 l.W g s S.XXT.(.$XP.>.Y.w q k r q q q q q q q q q ",
"q q q 7 q q q q h q d.0.t.).(.Q.XXP.4 ' ,.1 0.XXL v ).r.: :.m.q ` +X` 1 K.>.X v.p.1 q p.!.#X.XT.l.<.P.8 q 4 t 8 q q q q q q q q ",
"q q q q q q q q 7 % 6.d.w.).(.~.~.z.4 } P.# [ $XJ 6 +XD.O  .v.O _ &X{ : P.i.% m.z.w w p./.#X@XE.0.f.p.< q 4 z q q q q q q q q q ",
"q q q q q q q q w % { .X) @X/.~.(.c.. W $XV % Q.&.$ A C d i.@XD d N h A OX%.@ h.).C : q.XX%X@X).-..X| 1 z 4 q q q q q q q q k q ",
"q q q q q q q q w d C .X-.}.~.~..X}.A =.*X6.B l.$X} V u $.#XXX`.Y - S h.&X3.D s.).:.F Z.^.#X].J.-.].A g k 9 q z q q q q q q q q ",
"q q q q q q q q t h < p.w.p.~..X).N.#X$X~.].$X.XXXM.*X&X$X(.#X@X&XK.+X*X~.^..X@X~.+X%X$XT./.$Xs.w.s.4 k q w 7 t q q q q q q q q ",
"q q q q q q q q t h , | }.*.~.@XL..X).T.#X).R. XY.#X@Xb./.R.^.L.@XI.).Q.R.).|.Q.~.I.@X!.~.R.#X..I.O.: w k q < q q q q q q q q q ",
"q q q q q q q q z 0 q d }.0.w.+XP.$XQ.~.~.L.$X!.!.!.!.!.!.!.!.!.~.~.!.!./.$X~.(..X(.R.(.$X(.d.>..Xj s w 4 l 0 4 q q q q q q q q ",
"q q q q q q q q 4 w d 7 E +X+.F.=Xm.^.^.~.^.I.!.!.!.!.!.!.!.!.!.!.!.!.~.!.!.~.~.M.*X'.b.T.*X/ $X .d f 9 4 f w k q q q q q q q q ",
"q q q q q q q q 4 w q q 2 D.g.) ^.).(./.~.@XXX~.!.!.!.!.!.!.!.!.~.~.Q.!./..X!.~.^..X(.^.$X-._.A.w % k w q 3 q q q h q q q q q q ",
"q q h q q q q q f 0 q q 2 m ].e.0./.(.#X!.T.!.^.!.!.!.!.!.!.!.!.~.~.~.!.@X~.~.Q..Xn.L.$Xr.7.*XS d q q 9 w q q 4 q q q q q q q q ",
"q q q q q q q q k w 4 c w : T ].-.r.].~.L.XXT.#X!.!.!.!.!.!.~.~.~.~.~.$X~.~.Q./..X^.^.i.=.+X^ % 4 t q 4 q q q 7 q q q q q q q q ",
"q q q q q q q q k q 2 4 w d d #.&X*.0.XX@XQ..X(.!.!.!.!.!.!..X~..X/.@XR.~.~..X(.!.#X0.-.+X1.. j w t q f q 8 q q q q q q q q q q ",
"q q q q q q q q 2 q q 2 q 4 q 1  .%XC.&.P.$X@XT.!.!.!.!.!.!.~.~.~.!.!.Q.~.).#X/.Q.q.,.'.&.2 x 7 q k q q 4 k q q q q q q q q q k ",
"q q q q q q k q w f l w k 6 3 z @ W OXD.( e.M.$X!.!.!.!.!.!.~.~.~.!.XX/.!.$XI.j.O.s.oX| $ 2 k y q f q w 2 k q q q q q q q q q q ",
"q q q q q q q q q q q q q q q q x O C g.OX0.( w.K.Q.).XXXX^.~.).^.^.!.).K.e.9.<.$Xi.F 2 4 q k f q q q q q q q q q q q q q q q q ",
"q q q q q q q q q q q q q h q q 5 w 2 s [ }.%Xi.,.<.i.s.c.I.`.v.A.s.i.:.:.C.P.T.~ i < z q 5 q 4 q q q q q q q q q q q q q q q q ",
"h q q q q q q q q q q q q q q q c w w q 1 h ` g.'.K.A.i.-.-.;.<.q.s.k.m.M.S.{ 7 2 f f q w z z 4 q q q q q q q q q q q q q q q q ",
"q q q q q q q k q q q q q q q q q 5 w w x k 2 < M E >.g.m.m.v.I.l.s.6.{ C d 2 q w l w 2 q 4 2 l q q q q q q q q q q q q h q q q ",
"q q q q q q q q q q q h q q q q q f 4 q q 4 f k 1 1 < q w j l l l 1 : 3 q 8 5 7 c < 5 l 4 < 7 u q q q q q q q q q q q q q q q q ",
"q q q q q q q q q q q q q q q q 2 q l f q l w 7 z q k q 4 4 4 q t t w q f f z y 4 q q q q l l 7 q q q q q q q q q q q q q q q q ",
"q q q q q q q q q q q q q q q q l q 5 q q q q 4 5 7 h h k q l x * h l t 9 9 4 f 4 l q < q 4 1 d q q q q q q q q q q q q q q q q ",
"q q q q q q q q q q q q q q q q 4 w 9 f f 8 w f k k q q q q q 4 t q 4 q h k h 7 7 4 l z t w w q q q q q q q q q q q q q q q q q ",
"q q q q q h q q q q q q q q q q q q h q q q q q q q q q q q q q q q q q q q q q q q q q q q q q q k q q q q q q q q q q q q q q ",
"q q q q q 4 q q q q q q q q k q q q q q q q q q q q k q q q q q q q q q q q q q q q q q q q q q q q q q q q q q q k q q q q q q ",
"q q q q q q q q q q q q q q q q q q q q q q q q q q q q q q q q q q q q q q q q q q q q q q q q q q q q q q q q q q q q q q q q ",
"q q q q q q q q q q q q q q q q q q q q q q q q q q q q q q q q q q q q q q q q q k q q q q q q q q q q q q q q q q q q q q q q ",
"q q q k q q q q h q q q q q q q q q q q h q q q q q q q q q q q q q q q q k q q q q q q q q q q q q q q q q q q q q q q q q h q ",
"q q q q q q q q q q q q q q q q q q q q q q q q q q q q q q q q q q q q q q q q q q q q h q q q q q q q q q q q q q q q q q q q ",
"q q q q q q q q q q q q q q q q q q q q q q q q q q q q q q q q q q q q q q q q q q q q q q q q q q q q h q q q q q q q q q q q ",
"q q q q q q q q q q q q q q q q q q q q q q q q q q q q h q q q q q q q q q q q q 4 q q q q q q q q q q q q q q q q q q q q q q "
};
