/* XPM */
static char *e7745cf7397e415a8d4f47b63b9d5d9aFUF2gRmyxgPoJlt0[] = {
/* columns rows colors chars-per-pixel */
"32 32 170 2 ",
"   c #34A07E",
".  c #3DA084",
"X  c #4C9782",
"o  c #459D83",
"O  c #4C9C84",
"+  c #4D9D89",
"@  c #539685",
"#  c #589782",
"$  c #529B86",
"%  c #5C9C85",
"&  c #539E8A",
"*  c #5A9B8C",
"=  c #579E90",
"-  c #5F9C91",
";  c #6C9887",
":  c #639D8B",
">  c #719F85",
",  c #46A087",
"<  c #4CA286",
"1  c #47A38A",
"2  c #4DA28B",
"3  c #52A287",
"4  c #58A287",
"5  c #53A18C",
"6  c #5CA38B",
"7  c #54A291",
"8  c #64A182",
"9  c #6EA586",
"0  c #65A38B",
"q  c #63AB8C",
"w  c #6DA88A",
"e  c #75A48F",
"r  c #7BA98E",
"t  c #6EA393",
"y  c #67AC90",
"u  c #6CAA92",
"i  c #76A295",
"p  c #7FA494",
"a  c #73AB92",
"s  c #7CAA94",
"d  c #7FAA99",
"f  c #85A594",
"g  c #87AF97",
"h  c #8CAD97",
"j  c #85AC99",
"k  c #8CAB9C",
"l  c #99A597",
"z  c #91AC97",
"x  c #93AD9A",
"c  c #9AAC9C",
"v  c #84B097",
"b  c #89B197",
"n  c #84B298",
"m  c #88B098",
"M  c #95B29D",
"N  c #9DB39E",
"B  c #A3AE9E",
"V  c #9DADA3",
"C  c #9BB2A2",
"Z  c #97B8A7",
"A  c #A5AFA4",
"S  c #B2AFAA",
"D  c #A5B3A4",
"F  c #AAB4A5",
"G  c #A5B4A9",
"H  c #ABB3A9",
"J  c #AAB9AA",
"K  c #B4B7A6",
"L  c #B4B3AC",
"P  c #BAB6AB",
"I  c #B7BBAD",
"U  c #BCB9AD",
"Y  c #B4B7B0",
"T  c #BCB5B0",
"R  c #B0BCB0",
"E  c #BCBAB3",
"W  c #C1B5AB",
"Q  c #CCB3AF",
"!  c #C3BBAE",
"~  c #C9BDAF",
"^  c #DBB6AE",
"/  c #C4AFB4",
"(  c #C6B8B5",
")  c #CBBDB6",
"_  c #C5BEB8",
"`  c #CBBDB9",
"'  c #D4BAB4",
"]  c #DBBDB4",
"[  c #D5BDB9",
"{  c #D9BEB8",
"}  c #E3BDB5",
"|  c #ECBEB5",
" . c #E5B7BA",
".. c #E3BEBB",
"X. c #EBBEBB",
"o. c #F9BEB6",
"O. c #F5BBBA",
"+. c #FBBFB9",
"@. c #B9C1B4",
"#. c #C5C3B2",
"$. c #CFC3BC",
"%. c #D7C4B6",
"&. c #DBC1B7",
"*. c #DDCBB7",
"=. c #D3C4BB",
"-. c #DCC1BC",
";. c #E6C1B5",
":. c #EBC2B6",
">. c #E8C9B7",
",. c #E4C2BA",
"<. c #EBC3BC",
"1. c #E3CABD",
"2. c #EEC9BC",
"3. c #F0C4B7",
"4. c #F6C4B9",
"5. c #F5C3BC",
"6. c #F4C3BF",
"7. c #F1C4BE",
"8. c #F3C7BE",
"9. c #F6C4BD",
"0. c #F7C5BC",
"q. c #F6C7BD",
"w. c #F4C5BF",
"e. c #F7C5BE",
"r. c #F2C4BB",
"t. c #FBC2BB",
"y. c #F9C5BA",
"u. c #F8C1BC",
"i. c #F8C3BD",
"p. c #FAC0BE",
"a. c #FFC2BD",
"s. c #FDC2BE",
"d. c #FFC4BE",
"f. c #FFC4BF",
"g. c #FCC7BF",
"h. c #FCC4BD",
"j. c #F3C9BD",
"k. c #F3C8BF",
"l. c #F4CABC",
"z. c #F3CABE",
"x. c #F9C9BD",
"c. c #FDCCBF",
"v. c #E6BCC0",
"b. c #F7BFC0",
"n. c #FFBCC3",
"m. c #EEC9C0",
"M. c #F6C5C0",
"N. c #F6C6C2",
"B. c #F0C2C4",
"V. c #F5C5C2",
"C. c #FFC2C2",
"Z. c #FFC2C3",
"A. c #F9C6C2",
"S. c #FAC7C3",
"D. c #FCC5C2",
"F. c #FFC5C3",
"G. c #FCC7C3",
"H. c #FFC5C4",
"J. c #FFC6C4",
"K. c #FEC6C7",
"L. c #FDC3C3",
"P. c #F6CAC1",
"I. c #F5CCC6",
"U. c #FFC9C4",
"Y. c #FFC9C6",
"T. c #FECAC4",
"R. c #F2C0C9",
"E. c #FFC5CB",
"W. c #FFCFC8",
"Q. c #F4D0C0",
/* pixels */
"& & & & & 3 & & * + 1 2 & * & + + & & 2 + 2 & & & & & & & 3 & & ",
"& & & & & & & & & = * @ @ & 3 + & & & & * & $ 5 & & & & & & & & ",
"& & 3 & 3 & & & o + & * 5 5 & * * * & & $ $ & 5 & & 3 & 3 & & & ",
"& & & & & & & & 7 & 5 3 1 o & * 2 & * & 7 2 + @ & & & & & & & & ",
"& & & 3 & & & & = = = $ $ & & o o + 2 & & * = & & & & 3 & & & & ",
"& & & & & & & & * & X 5 w j V H V f 0 $ & * & + & & & & & & & & ",
"& & & & & & & & . 8 k W -.&.{ ,.,.,.[ G u X X 6 & & & & & & & & ",
"& & & & & & & 3 i G ,.X.| j.g.o.9.:.,.,.) V : o & & & & & & & 3 ",
"& & 2 & * =   p ' ^ 2.P.i.I.r.M.N.2.q.a.,.[ D $ 1 * & o & = & + ",
"+ & & & * O u Y %.9.f.i.<.j.5.5.f.j.y.4.3.<.{ C & $ 5 & 5 & & 2 ",
"& & @ 5 & o G X.i.2.} U.3.Z.g.j.3.9.:.j.j.e.<.~ i X 5 * + + & & ",
"5 5 & & O y ' O.i.Y.Z.r.H.t.5.F.D.H.D.F.F.Z.N.} G < $ * + & = & ",
"5 & 2 * X Z ,.3.N.K T B.) *.#.[ -.' ..P ,.' F.;.` q @ * + 5 5 & ",
"& & 2 * $ E ,.Q.] > d T r ! x k I h P 6 L M H.<.{ s & = & + & & ",
"& & & + : ( | c.#.A E k c P c V U m L 6 C h E.D.] C + 7 & + & & ",
"& = - . t ) O.g...w u / b ! g A P x L p k c Y.3.;.H X 2 * + & = ",
"& 1 & # 0 @.X.g...8 s R.f ` l C E c H c a x E.:.,.C 1 7 @ < & & ",
"& 3 * 1 : #.^ U. .n n E f R x h H x F F c r E.*.} k O 7 & 3 & = ",
"& * & 1 @ L } U.=.x P D P 9 J =.q A E N ` x N.e.[ e @ * 5 & $ + ",
"& * 2 = + d ,.| O.W.N.n.b.2.V.n.,.Z.Z.P.V.Z.M.} E 6 $ & 2 & & & ",
"& * + - & 5 E ..W.r.t.3.U.3.D.U.Y.<.P.5.g.t.V.&.k , 5 & 1 * * & ",
"2 & & & = O a -.} +.U.e.2.>.3.3.:.U.3.l.+.:.] P * o 5 + 2 & * + ",
"& & * + & & o V ] V.e.1.+.k.f.j.f.5.D.9.0.} [ 0 + & 2 * & & * + ",
"= & o 2 + = 6 @ M ] ..r.H.i.i.g.2.N.V.X.] W u O 7 * $ & * + & 2 ",
"& & & & & & & & O d P ....;.,.<.<.} &.=.G ; X 7 & & & 3 & & & & ",
"& & & & 3 & & & + + 4 s F ) [ #.Q E C 0 X 2 5 X & & & & & & & & ",
"& & 5 & & & & & - * + , X % % : 6 $ $ $ 5 5 7 7 3 & & & & & & & ",
"& & & & & 3 & & + & * & 2 1 2 * 1 1 & 7 * & + + & & & & & & & 3 ",
"& & & & & & & & + + $ & * * & & * & 7 & O & 6 * & & & & & & & & ",
"& & & & & & 3 & * & 5 3 O & & 7 5 & & 5 & + @ & & & & & & & & 3 ",
"& & & 3 & & & & & & & & & & $ $ * * & + + 2 2 2 3 & & & & & & & ",
"+ 5 & & & & & & + & & & & & & & 2 + 3 * - & & & & & 3 & & & & & "
};
