/* XPM */
static char *_481cc0df32f4f7bffa4704f3a237c504IsOB3stBBupUBjr[] = {
/* columns rows colors chars-per-pixel */
"16 16 235 2 ",
"   c #3E9B7E",
".  c #4C967F",
"X  c #45A07F",
"o  c #4BA07F",
"O  c #3E9E83",
"+  c #3BA581",
"@  c #469A80",
"#  c #449982",
"$  c #479C85",
"%  c #499E81",
"&  c #499D83",
"*  c #4A9F82",
"=  c #4D9D82",
"-  c #4C9B85",
";  c #4D9B85",
":  c #4C9987",
">  c #4E9B87",
",  c #489C84",
"<  c #489C85",
"1  c #4B9D87",
"2  c #499E87",
"3  c #4E9C86",
"4  c #4E9B8B",
"5  c #4D9C89",
"6  c #4E9D88",
"7  c #4C9E88",
"8  c #4D9F88",
"9  c #4D9F89",
"0  c #4F9E88",
"q  c #4F9E89",
"w  c #4C9D8A",
"e  c #519483",
"r  c #539782",
"t  c #539685",
"y  c #569686",
"u  c #579787",
"i  c #519983",
"p  c #509884",
"a  c #509B86",
"s  c #579B84",
"d  c #569987",
"f  c #559A87",
"g  c #519C85",
"h  c #529D86",
"j  c #569F84",
"k  c #559D87",
"l  c #559F86",
"z  c #5A9984",
"x  c #599887",
"c  c #5D9788",
"v  c #5C948B",
"b  c #529989",
"n  c #539A88",
"m  c #51998B",
"M  c #519B8A",
"N  c #529B8A",
"B  c #559A88",
"V  c #509D89",
"C  c #539C88",
"Z  c #529D88",
"A  c #539C89",
"S  c #519E8A",
"D  c #539E8A",
"F  c #579C89",
"G  c #549D8A",
"H  c #549F8B",
"J  c #569E8A",
"K  c #569F8B",
"L  c #579F8B",
"P  c #519F8F",
"I  c #559C8C",
"U  c #549D8C",
"Y  c #559F8E",
"T  c #579E8E",
"R  c #599989",
"E  c #5B9A89",
"W  c #589B8A",
"Q  c #5B9B8B",
"!  c #5E9889",
"~  c #5E988A",
"^  c #599C8B",
"/  c #589C8D",
"(  c #5B9E8C",
")  c #599D8E",
"_  c #5B9D8F",
"`  c #5A9E8F",
"'  c #5C9C8C",
"]  c #5F9E8D",
"[  c #5D9D8F",
"{  c #5F9F91",
"}  c #609784",
"|  c #659388",
" . c #67998E",
".. c #48A087",
"X. c #4BA186",
"o. c #49A286",
"O. c #4CA086",
"+. c #48A088",
"@. c #4BA089",
"#. c #4BA38B",
"$. c #4CA089",
"%. c #4FA18B",
"&. c #4DA28B",
"*. c #4AA488",
"=. c #4AA48A",
"-. c #4EA48B",
";. c #4DA28D",
":. c #4FA38C",
">. c #4EA38E",
",. c #49A58C",
"<. c #51A08A",
"1. c #51A08B",
"2. c #52A18B",
"3. c #53A18B",
"4. c #51A48A",
"5. c #53A08C",
"6. c #52A18C",
"7. c #51A38C",
"8. c #53A28C",
"9. c #53A08E",
"0. c #54A18D",
"q. c #56A18C",
"w. c #57A08D",
"e. c #50A48D",
"r. c #58A08A",
"t. c #5FA088",
"y. c #5DA08F",
"u. c #4FA290",
"i. c #50A190",
"p. c #51A291",
"a. c #56A091",
"s. c #55A393",
"d. c #51A490",
"f. c #53A491",
"g. c #5DA290",
"h. c #5DA192",
"j. c #54A891",
"k. c #61A08D",
"l. c #69A38B",
"z. c #68A28C",
"x. c #6FA693",
"c. c #6AAC91",
"v. c #70A390",
"b. c #74A295",
"n. c #79A491",
"m. c #7DA491",
"M. c #72A891",
"N. c #71A893",
"B. c #7AA997",
"V. c #81A392",
"C. c #86A897",
"Z. c #89AF96",
"A. c #82AC98",
"S. c #8FAC9A",
"D. c #95A895",
"F. c #95A799",
"G. c #91AE98",
"H. c #96AD9B",
"J. c #9BA998",
"K. c #9AAA9D",
"L. c #98AD9E",
"P. c #A5B19D",
"I. c #9BABA0",
"U. c #9FABA7",
"Y. c #92B2A5",
"T. c #98B0A2",
"R. c #9DB4A2",
"E. c #AFAFAF",
"W. c #B2AFA8",
"Q. c #A1B1A6",
"!. c #A0B5A6",
"~. c #ABB7A1",
"^. c #ABB2AB",
"/. c #B1B5A4",
"(. c #B7B9A4",
"). c #BFB0AB",
"_. c #B9B5A9",
"`. c #BAB5AF",
"'. c #BDB4AF",
"]. c #B6B8AD",
"[. c #BDBEAC",
"{. c #BEBAB1",
"}. c #C6B8AF",
"|. c #C0BEAF",
" X c #C6BFAF",
".X c #CABAAD",
"XX c #C7BAB2",
"oX c #C4BDB3",
"OX c #CEBCB0",
"+X c #C8BBB5",
"@X c #D4B9B2",
"#X c #D1BCB7",
"$X c #DBBCB7",
"%X c #DFBEB7",
"&X c #D8BCBB",
"*X c #F6BDB4",
"=X c #F7BEB7",
"-X c #F5BFBF",
";X c #C1C3B6",
":X c #CDC1B3",
">X c #D4C1BA",
",X c #D3C9BD",
"<X c #EEC1BE",
"1X c #EEC2BF",
"2X c #F5C7B8",
"3X c #F6C6BC",
"4X c #F8C2B8",
"5X c #FFC2BC",
"6X c #F8C6BF",
"7X c #FCC7BF",
"8X c #F4C8BB",
"9X c #F1CCBA",
"0X c #FACCBF",
"qX c #F3BCC1",
"wX c #FFBFC3",
"eX c #F1C0C3",
"rX c #F4C3C7",
"tX c #FFC3C1",
"yX c #F8C7C0",
"uX c #F9C6C5",
"iX c #FFC4C4",
"pX c #FFC6C7",
"aX c #FBC9C0",
"sX c #FDC8C0",
"dX c #FFC8C6",
"fX c #FFCAC6",
"gX c #F9C7C8",
"hX c #FFC7C9",
"jX c #FDC4CB",
"kX c #FDC6CB",
"lX c #FFC5CC",
"zX c #FAC9CC",
"xX c #FDCBCE",
"cX c #FFCBCF",
"vX c #F8D2C9",
/* pixels */
"5.> c 3.- ,.Q [ 0.B r.3 K ) P Z ",
"Z e.Z Z  .&.# 3 7 9 H H Y m 5.k ",
"~ >.5.7 $ 3.x.x.b.K p ..s.c H s ",
"u Z Z K B.`.qX-XrXoXF.h O B e...",
"P h.$ M.&XwX3X9X=XyX<XL.@.f._ t ",
"u.2 t.+XhXiX8X3XsX7XfX$Xn.9 M >.",
"{   C.zX[.~.[._.}.P.(.uXW.> u K ",
"E = L.cXP.D.^.Q.^.A.G.jX`.+ 5.E ",
"f o.S.xX/.D.Q.Y.I.R.Z.jX).o | #.",
"5...m.qX%X.X:X@X:XOX@XhXK.X E u.",
"p.7 j ].uXfX7X5X=XiXpX#Xl.@.P 4 ",
"M _ & c.{.-X6X4XtXvX>XV.o.5.Z K ",
"3.[ k . l.T.;X,XXX!.v.i &.3.f H ",
"g 3 0.5.f > s }  .i $ y.) 3 H g ",
"[ &.2 &.~ e.&.-.,...j.y.e 9 0.Z ",
"9 K Q ,.x e.3 Q Q k h 3 M h.5 K "
};
